<svg width="24" height="17" viewBox="0 0 24 17" fill="none" xmlns="http://www.w3.org/2000/svg">
<g clip-path="url(#clip0_11543_257)">
<path d="M22 0.5H2C0.89543 0.5 0 1.39543 0 2.5V14.5C0 15.6046 0.89543 16.5 2 16.5H22C23.1046 16.5 24 15.6046 24 14.5V2.5C24 1.39543 23.1046 0.5 22 0.5Z" fill="#252525"/>
<path d="M9 13.5C11.7614 13.5 14 11.2614 14 8.5C14 5.73858 11.7614 3.5 9 3.5C6.23858 3.5 4 5.73858 4 8.5C4 11.2614 6.23858 13.5 9 13.5Z" fill="#EB001B"/>
<path d="M15 13.5C17.7614 13.5 20 11.2614 20 8.5C20 5.73858 17.7614 3.5 15 3.5C12.2386 3.5 10 5.73858 10 8.5C10 11.2614 12.2386 13.5 15 13.5Z" fill="#F79E1B"/>
<path fill-rule="evenodd" clip-rule="evenodd" d="M12 4.49963C13.2144 5.41184 14 6.86418 14 8.5C14 10.1358 13.2144 11.5882 12 12.5004C10.7856 11.5882 10 10.1358 10 8.5C10 6.86418 10.7856 5.41184 12 4.49963Z" fill="#FF5F00"/>
</g>
<defs>
<clipPath id="clip0_11543_257">
<rect width="24" height="16" fill="white" transform="translate(0 0.5)"/>
</clipPath>
</defs>
</svg>
