<svg width="24" height="17" viewBox="0 0 24 17" fill="none" xmlns="http://www.w3.org/2000/svg">
<g clip-path="url(#clip0_11543_263)">
<path d="M22 0.5H2C0.89543 0.5 0 1.39543 0 2.5V14.5C0 15.6046 0.89543 16.5 2 16.5H22C23.1046 16.5 24 15.6046 24 14.5V2.5C24 1.39543 23.1046 0.5 22 0.5Z" fill="#016FD0"/>
<path fill-rule="evenodd" clip-rule="evenodd" d="M13.764 13.8939V8.19246L23.9116 8.20156V9.77646L22.7387 11.0299L23.9116 12.2947V13.903H22.039L21.0438 12.8049L20.0557 13.9072L13.764 13.8939Z" fill="#FFFFFE"/>
<path fill-rule="evenodd" clip-rule="evenodd" d="M14.4418 13.2688V8.81992H18.2141V9.8448H15.6632V10.5405H18.1532V11.5483H15.6632V12.2316H18.2141V13.2688H14.4418Z" fill="#016FD0"/>
<path fill-rule="evenodd" clip-rule="evenodd" d="M18.1953 13.2688L20.2826 11.0418L18.1952 8.82001H19.8108L21.0863 10.23L22.3654 8.82001H23.9116V8.85501L21.8687 11.0418L23.9116 13.2057V13.2688H22.3499L21.0518 11.8446L19.767 13.2688H18.1953Z" fill="#016FD0"/>
<path fill-rule="evenodd" clip-rule="evenodd" d="M14.2374 3.13196H16.6834L17.5426 5.08281V3.13196H20.5624L21.0832 4.59353L21.6057 3.13196H23.9116V8.83335H11.7251L14.2374 3.13196Z" fill="#FFFFFE"/>
<path fill-rule="evenodd" clip-rule="evenodd" d="M14.7005 3.75136L12.7264 8.19653H14.0803L14.4528 7.30636H16.4707L16.8429 8.19653H18.2304L16.2647 3.75136H14.7005ZM14.8701 6.30879L15.4621 4.89372L16.0536 6.30879H14.8701Z" fill="#016FD0"/>
<path fill-rule="evenodd" clip-rule="evenodd" d="M18.2119 8.19574V3.75066L20.115 3.7572L21.0943 6.48993L22.0799 3.75066H23.9115V8.19574L22.7329 8.20617V5.15282L21.6204 8.19574H20.5446L19.4089 5.14239V8.19574H18.2119Z" fill="#016FD0"/>
</g>
<defs>
<clipPath id="clip0_11543_263">
<rect width="24" height="16" fill="white" transform="translate(0 0.5)"/>
</clipPath>
</defs>
</svg>
