<svg width="12" height="13" viewBox="0 0 12 13" fill="none" xmlns="http://www.w3.org/2000/svg">
<path fill-rule="evenodd" clip-rule="evenodd" d="M10.193 4.47C10.3338 4.32917 10.5248 4.25005 10.724 4.25005C10.9231 4.25005 11.1141 4.32917 11.255 4.47C11.3958 4.61083 11.4749 4.80184 11.4749 5.001C11.4749 5.20016 11.3958 5.39117 11.255 5.532L6.52997 10.256C6.38935 10.3965 6.19872 10.4753 5.99997 10.4753C5.80122 10.4753 5.6106 10.3965 5.46997 10.256L0.744972 5.532C0.604142 5.39117 0.525024 5.20016 0.525024 5.001C0.525024 4.80184 0.604142 4.61083 0.744972 4.47C0.885802 4.32917 1.07681 4.25005 1.27597 4.25005C1.47514 4.25005 1.66614 4.32917 1.80697 4.47L5.99997 8.663L10.193 4.47Z" fill="black"/>
</svg>
