<svg width="8" height="2" viewBox="0 0 8 2" fill="none" xmlns="http://www.w3.org/2000/svg">
<path d="M0.937753 2C1.4616 2 1.86904 1.55709 1.86904 0.99654C1.86904 0.442907 1.4616 0 0.937753 0C0.413905 0 0 0.442907 0 0.99654C0 1.55709 0.413905 2 0.937753 2Z" fill="#727F96"/>
<path d="M4.00323 2C4.52708 2 4.93452 1.55709 4.93452 0.99654C4.93452 0.442907 4.52708 0 4.00323 0C3.47939 0 3.06548 0.442907 3.06548 0.99654C3.06548 1.55709 3.47939 2 4.00323 2Z" fill="#727F96"/>
<path d="M7.06871 2C7.59256 2 8 1.55709 8 0.99654C8 0.442907 7.59256 0 7.06871 0C6.54487 0 6.13096 0.442907 6.13096 0.99654C6.13096 1.55709 6.54487 2 7.06871 2Z" fill="#727F96"/>
</svg>
