<svg width="17" height="16" viewBox="0 0 17 16" fill="none" xmlns="http://www.w3.org/2000/svg">
<g clip-path="url(#clip0_11544_1129)">
<path d="M15.2586 8.27099C16.0336 8.28699 16.6666 9.21899 16.6666 10.344C16.6666 11.47 16.0336 12.417 15.2586 12.433H11.0527C11.5786 12.118 11.8374 11.489 12.1031 10.754H15.2384C15.4033 10.754 15.5376 10.579 15.5376 10.342C15.5376 10.2857 15.5298 10.2299 15.5148 10.1779C15.4997 10.1259 15.4776 10.0787 15.4498 10.039C15.422 9.9993 15.389 9.96791 15.3528 9.94663C15.3165 9.92535 15.2776 9.9146 15.2384 9.91499H13.7769C13.3972 9.91288 13.0335 9.69442 12.7657 9.30752C12.4978 8.92062 12.3476 8.39683 12.348 7.85099C12.348 6.71599 12.9887 5.78799 13.7762 5.78799H16.0329V7.39699H13.7769C13.6963 7.40065 13.6199 7.44944 13.564 7.53296C13.5081 7.61648 13.4772 7.72811 13.4777 7.84399C13.4777 8.08099 13.6113 8.27099 13.7769 8.27099H15.2586V8.27099ZM9.57653 5.78799C10.8329 5.78799 11.8499 7.26999 11.8499 9.09799C11.8499 10.925 10.8308 12.433 9.57444 12.433H8.43427V16H7.29688V9.10299C7.29688 7.27599 8.32018 5.78799 9.57653 5.78799ZM9.57653 10.754C10.2089 10.754 10.723 10.024 10.723 9.09799C10.723 8.17199 10.2089 7.41799 9.57653 7.41799C8.94418 7.41799 8.43427 8.17199 8.43427 9.09799V10.754H9.57653Z" fill="#727F96"/>
<path d="M3.69619 12.433H6.7028C6.66617 12.7276 6.55851 12.9942 6.39872 13.1861C6.23894 13.3779 6.03724 13.4827 5.82906 13.482H1.55428C1.06593 13.482 0.666626 12.887 0.666626 12.182V6.004C0.666626 5.3 1.06593 4.74 1.55428 4.74H5.82906C6.31671 4.74 6.71671 5.317 6.71671 6.023L6.71254 10.755H3.69619C3.23428 10.755 2.83358 10.44 2.63532 9.881H5.99045V9.078C5.98935 8.20167 5.74683 7.36164 5.31596 6.7417C4.88509 6.12176 4.30094 5.77238 3.69132 5.77C3.17848 5.77281 2.68104 6.02224 2.27824 6.47857C1.87545 6.93489 1.59048 7.57186 1.46871 8.288C1.46871 8.288 1.40123 8.771 1.40123 9.086C1.40123 9.401 1.47219 9.879 1.47219 9.879C1.71706 11.326 2.62071 12.434 3.69619 12.434V12.433ZM3.69132 7.339C4.15184 7.339 4.55184 7.746 4.7508 8.271H2.63184C2.8308 7.746 3.2315 7.339 3.69132 7.339V7.339ZM5.62732 2.729V3.494C5.62732 3.593 5.5675 3.69 5.49793 3.69H4.78558C4.71602 3.69 4.65967 3.593 4.65967 3.494V2.73C4.65967 1.977 4.22558 1.364 3.69132 1.364C3.15776 1.364 2.72367 1.977 2.72367 2.73V3.494C2.72367 3.593 2.66245 3.69 2.59289 3.69H1.88054C1.81097 3.69 1.75532 3.593 1.75532 3.494V2.655C1.78384 1.182 2.6395 0 3.69202 0C4.76054 0 5.62663 1.222 5.62663 2.73L5.62732 2.729Z" fill="#A41760"/>
</g>
<defs>
<clipPath id="clip0_11544_1129">
<rect width="16" height="16" fill="white" transform="translate(0.666626)"/>
</clipPath>
</defs>
</svg>
