<svg width="17" height="16" viewBox="0 0 17 16" fill="none" xmlns="http://www.w3.org/2000/svg">
<g clip-path="url(#clip0_11544_1134)">
<path d="M0.333252 3.512C0.333252 2.125 1.15943 1 2.17689 1H14.4896C15.5071 1 16.3333 2.125 16.3333 3.512V12.488C16.3322 12.8194 16.2837 13.1473 16.1905 13.4529C16.0972 13.7585 15.9611 14.0359 15.7899 14.2692C15.6187 14.5024 15.4157 14.6871 15.1926 14.8125C14.9695 14.9379 14.7306 15.0016 14.4896 15H2.17689C1.15871 15 0.333252 13.875 0.333252 12.488V3.512ZM1.06052 12.472C1.06052 13.352 1.53543 14 2.1798 14H8.32234V2H2.1798C1.53543 2 1.06052 2.647 1.06052 3.528V12.472ZM10.1791 12.375H11.694V9.042H11.7107C11.9973 9.772 12.5703 10.043 13.0998 10.043C14.4045 10.043 15.102 8.536 15.102 6.723C15.102 5.239 14.438 3.625 13.2256 3.625C12.5354 3.625 11.8969 4.015 11.5929 4.874H11.5754V3.768H10.1791V12.375V12.375ZM13.5369 6.77C13.5369 7.747 13.1922 8.419 12.6198 8.419C12.1151 8.419 11.694 7.747 11.694 6.852C11.694 5.934 12.0634 5.25 12.6198 5.25C13.2096 5.25 13.5376 5.958 13.5376 6.77H13.5369Z" fill="#727F96"/>
<path d="M7.10199 3.765V9.095C7.10199 11.575 6.21545 12.375 4.42345 12.375C3.84612 12.3773 3.27252 12.2478 2.72599 11.992L2.80308 10.346C3.27145 10.659 3.66417 10.844 4.3049 10.844C5.19145 10.844 5.66926 10.277 5.66926 9.094V8.77H5.65181C5.28526 9.477 4.77326 9.802 4.15799 9.802C2.93908 9.802 2.17981 8.551 2.17981 6.766C2.17981 4.97 2.80308 3.625 4.18417 3.625C4.8409 3.625 5.36963 4.112 5.69545 4.855H5.71145V3.765H7.10199V3.765ZM3.76599 6.732C3.76599 7.67 4.17617 8.202 4.63654 8.202C5.18199 8.202 5.61836 7.577 5.61836 6.65C5.61836 5.978 5.32745 5.225 4.63654 5.225C4.0649 5.225 3.76599 5.909 3.76599 6.732Z" fill="#EE3525"/>
</g>
<defs>
<clipPath id="clip0_11544_1134">
<rect width="16" height="16" fill="white" transform="translate(0.333252)"/>
</clipPath>
</defs>
</svg>
