<svg width="51" height="49" viewBox="0 0 51 49" fill="none" xmlns="http://www.w3.org/2000/svg">
<path d="M25.5 0C18.7393 0.00726285 12.2577 2.59084 7.47713 7.18391C2.69659 11.777 0.00755929 18.0044 0 24.5C0.0113275 30.9945 2.70156 37.2198 7.48129 41.8121C12.261 46.4044 18.7405 48.9891 25.5 49C32.263 49 38.749 46.4188 43.5312 41.8241C48.3134 37.2295 51 30.9978 51 24.5C51 18.0022 48.3134 11.7705 43.5312 7.17588C38.749 2.58124 32.263 0 25.5 0ZM41.0101 38.6375C39.578 35.8621 37.3671 33.5265 34.6269 31.8942C31.8867 30.2619 28.7262 29.3978 25.5021 29.3994C22.2779 29.4011 19.1184 30.2684 16.38 31.9034C13.6416 33.5385 11.4332 35.8764 10.0042 38.6532C6.19123 34.8537 4.06662 29.7779 4.08 24.5C4.08 19.0418 6.33674 13.8072 10.3538 9.94774C14.3708 6.08824 19.8191 3.92 25.5 3.92C31.1809 3.92 36.6292 6.08824 40.6462 9.94774C44.6633 13.8072 46.92 19.0418 46.92 24.5C46.9328 29.7705 44.8137 34.8396 41.0101 38.6375ZM25.5 9.8C23.6844 9.8 21.9095 10.3173 20.3999 11.2864C18.8902 12.2556 17.7136 13.6331 17.0188 15.2447C16.324 16.8564 16.1422 18.6298 16.4964 20.3407C16.8506 22.0516 17.7249 23.6232 19.0088 24.8567C20.2926 26.0902 21.9283 26.9302 23.7091 27.2705C25.4898 27.6108 27.3356 27.4362 29.013 26.7686C30.6905 26.1011 32.1242 24.9706 33.1329 23.5201C34.1416 22.0697 34.68 20.3644 34.68 18.62C34.68 17.4617 34.4426 16.3148 33.9812 15.2447C33.5199 14.1746 32.8437 13.2023 31.9912 12.3833C31.1388 11.5643 30.1268 10.9146 29.013 10.4714C27.8993 10.0281 26.7055 9.8 25.5 9.8Z" fill="black"/>
</svg>
